<?xml version="1.0" encoding="UTF-8"?>
<svg version="1.1" xmlns="http://www.w3.org/2000/svg" width="512" height="512">
<path d="M0 0 C1.03703064 -0.00524185 2.07406128 -0.0104837 3.14251709 -0.0158844 C5.31733306 -0.02226477 7.49218373 -0.02101977 9.66699219 -0.01245117 C12.98955279 -0.00389291 16.31041906 -0.03283696 19.6328125 -0.06445312 C21.75520782 -0.06606424 23.87760617 -0.06548932 26 -0.0625 C27.48140472 -0.07935097 27.48140472 -0.07935097 28.99273682 -0.09654236 C34.76113657 -0.03824756 38.18423618 0.53046422 42.734375 4.43359375 C46.36271163 8.25289547 47.04437958 11.31638381 47.234375 16.43359375 C47.04437958 21.55080369 46.36271163 24.61429203 42.734375 28.43359375 C37.76550097 32.47547717 34.28952138 33.00254852 28.15234375 32.9375 C27.33872879 32.94692123 26.52511383 32.95634247 25.68684387 32.96604919 C23.09826251 32.9945861 20.51060043 32.99778305 17.921875 32.99609375 C15.34399538 32.99972082 12.76678371 33.00948377 10.18904114 33.03684998 C8.59072648 33.05341972 6.99219348 33.05668968 5.3938446 33.0438385 C-0.1641944 33.09548689 -5.20525399 34.05047821 -10.265625 36.43359375 C-14.85711389 41.13986986 -15.62061681 44.50274099 -15.546875 50.890625 C-15.13381256 54.62539793 -13.75688168 56.67301203 -11.265625 59.43359375 C-6.61689932 62.89033849 -2.08810768 63.5539266 3.59753895 63.57225895 C4.55497779 63.57773339 5.51241663 63.58320784 6.49886876 63.58884817 C8.06452936 63.59031533 8.06452936 63.59031533 9.66181946 63.59181213 C10.77681782 63.59675011 11.89181619 63.60168809 13.04060239 63.6067757 C16.78398406 63.62215746 20.52734858 63.63051321 24.27075195 63.63891602 C26.95126088 63.648494 29.63176573 63.65846079 32.31227112 63.66891479 C38.08694559 63.69065982 43.86162238 63.70881152 49.6363163 63.72451973 C57.98554429 63.74723634 66.33474708 63.77537668 74.68395367 63.80483901 C88.2301279 63.85249295 101.77631244 63.89576309 115.32250977 63.9362793 C128.48104657 63.9756454 141.63957422 64.0170743 154.7980957 64.0612793 C155.60924488 64.06400357 156.42039406 64.06672784 157.25612352 64.06953467 C161.32543784 64.08321433 165.39475203 64.09693457 169.46406615 64.11067498 C203.22081685 64.22460524 236.97758667 64.33142222 270.734375 64.43359375 C270.59952059 61.8758803 270.4579363 59.31883433 270.3125 56.76171875 C270.25666748 55.68301514 270.25666748 55.68301514 270.19970703 54.58251953 C269.81181524 47.92751337 269.14774239 42.04807509 264.484375 36.99609375 C258.49435631 33.59267404 252.65425301 33.15154438 245.94921875 33.16015625 C244.26757133 33.13987863 242.58593074 33.11902807 240.90429688 33.09765625 C238.28208592 33.07503615 235.660146 33.05856766 233.0378418 33.05273438 C230.48698373 33.04319043 227.93730991 33.0094114 225.38671875 32.97265625 C224.21930397 32.98022446 224.21930397 32.98022446 223.02830505 32.98794556 C217.81523046 32.894224 214.89971135 31.82404729 210.734375 28.43359375 C207.10603837 24.61429203 206.42437042 21.55080369 206.234375 16.43359375 C206.42437042 11.31638381 207.10603837 8.25289547 210.734375 4.43359375 C216.12067244 -0.17384699 220.63442891 -0.15346593 227.3984375 -0.09765625 C228.42689789 -0.10148315 229.45535828 -0.10531006 230.51498413 -0.10925293 C232.68854756 -0.11196934 234.86214384 -0.10462719 237.03564453 -0.08789062 C240.32791033 -0.06660964 243.61796096 -0.08763419 246.91015625 -0.11328125 C264.71671676 -0.13807758 277.02971458 2.26299524 290.484375 14.74609375 C299.90114138 24.69588464 303.05312157 35.48520955 302.69140625 48.91479492 C302.02798114 58.95780228 302.02798114 58.95780228 304.89941406 68.2578125 C308.28337144 71.11267475 312.60484006 72.07587407 316.734375 73.43359375 C325.99458144 80.32078705 332.27864795 91.22380622 334.734375 102.43359375 C335.18186711 108.21867835 335.1554788 113.98881209 335.13842773 119.78833008 C335.14413694 121.54356825 335.15110332 123.29880271 335.15922546 125.05403137 C335.17711339 129.8021405 335.17599645 134.55006437 335.17028308 139.29819703 C335.1671842 143.27157081 335.1732916 147.24490936 335.17932183 151.21827811 C335.19335178 160.5981041 335.19181914 169.97783899 335.18041992 179.35766602 C335.16894642 189.01151269 335.18300499 198.66508131 335.2098164 208.31889135 C335.2320218 216.62749167 335.2385997 224.93600503 335.23273998 233.2446329 C335.22938002 238.19804112 335.23172106 243.15127124 335.24899101 248.10465431 C335.26453487 252.76613868 335.26042262 257.42721355 335.24168587 262.08868217 C335.23802016 263.79134675 335.24104898 265.49404216 335.25157166 267.19667816 C335.34581913 283.71867719 331.85518166 295.86043067 320.421875 308.18359375 C309.87124625 318.16901025 298.05890265 320.89446072 283.91970825 320.8212738 C282.66189667 320.82665934 281.40408508 320.83204488 280.10815799 320.83759362 C276.6421586 320.85196995 273.17639857 320.84782822 269.71038651 320.8404268 C265.96249081 320.83567792 262.21464563 320.84822014 258.46676636 320.85844421 C251.13408685 320.87560412 243.80149314 320.87647805 236.46879877 320.87123131 C230.50612593 320.86718304 224.54347837 320.86864095 218.58080673 320.87397957 C217.73081504 320.87472799 216.88082336 320.87547641 216.00507434 320.87624751 C214.27808245 320.87777906 212.55109057 320.87931741 210.82409869 320.88086248 C194.64364855 320.89457743 178.46324682 320.88915697 162.2827978 320.87767727 C147.49607964 320.8677465 132.70948665 320.88068464 117.9227878 320.90461146 C102.72147344 320.92902292 87.52021733 320.93860527 72.31888378 320.93195873 C63.79182792 320.92847099 55.26486829 320.93066913 46.7378273 320.94820976 C39.47881712 320.96295738 32.21997092 320.96353387 24.96096386 320.94613885 C21.26116821 320.93764735 17.56166518 320.93543353 13.86188507 320.95079041 C9.8420244 320.96726858 5.82286475 320.95244288 1.80300903 320.93479919 C0.64637225 320.9444042 -0.51026453 320.95400921 -1.70195091 320.96390527 C-15.9166485 320.8359888 -26.69006067 315.70104841 -37.015625 306.12109375 C-46.16425101 296.45462098 -49.73954809 285.13675838 -49.65330505 272.0486145 C-49.65869059 271.05215027 -49.66407613 270.05568603 -49.66962487 269.02902591 C-49.68384326 265.71599945 -49.67681576 262.403376 -49.66967773 259.09033203 C-49.6753845 256.70441366 -49.68234995 254.31849803 -49.69047546 251.93258667 C-49.70653068 246.13995703 -49.70851428 240.3474521 -49.70326256 234.55480494 C-49.69920977 229.84308344 -49.70067754 225.1313939 -49.70601082 220.41967392 C-49.70675924 219.74730535 -49.70750766 219.07493678 -49.70827876 218.38219341 C-49.70981035 217.01596952 -49.7113487 215.64974563 -49.71289373 214.28352176 C-49.72660014 201.49091513 -49.72119429 188.69836977 -49.70970852 175.90576456 C-49.69977907 164.2229663 -49.71271508 152.54032649 -49.73664271 140.85755266 C-49.76107239 128.83834979 -49.77063204 116.81922059 -49.76398998 104.7999934 C-49.76050621 98.06145105 -49.76267386 91.32303046 -49.78024101 84.58450699 C-49.79574004 78.24620156 -49.79172136 71.90819796 -49.77293587 65.56990433 C-49.76925818 63.24962928 -49.77233439 60.92933172 -49.78282166 58.60907745 C-49.86068402 39.95166408 -48.13878145 26.89549233 -34.953125 12.68359375 C-24.97378569 3.2388619 -13.46003053 -0.04034051 0 0 Z M-17.265625 94.43359375 C-17.33575163 117.48645282 -17.38863111 140.53929427 -17.42106152 163.59223843 C-17.43652073 174.29647325 -17.45759221 185.00064174 -17.49194336 195.70483398 C-17.52187462 205.03620021 -17.54120688 214.36751838 -17.54789048 223.69893128 C-17.55179641 228.63839769 -17.56095628 233.57772667 -17.58281517 238.51714897 C-17.60323916 243.1702062 -17.60944686 247.82306988 -17.60494804 252.47616768 C-17.6057706 254.18009621 -17.61170094 255.88403149 -17.62324142 257.58792114 C-18.17930472 271.03481595 -18.17930472 271.03481595 -12.99058819 282.99834347 C-6.33603168 289.19174843 1.95349571 288.72363759 10.44918823 288.69429016 C12.21272917 288.70002848 12.21272917 288.70002848 14.01189721 288.70588273 C17.2624065 288.71439765 20.5127709 288.71398605 23.76328397 288.70970213 C27.27394369 288.70723127 30.78457704 288.71625356 34.29522705 288.72373962 C41.16808599 288.73647872 48.04090584 288.73828129 54.91377459 288.73593936 C60.50134981 288.73415513 66.08891317 288.7359081 71.67648697 288.7401638 C72.47224407 288.74075899 73.26800117 288.74135418 74.08787213 288.74196741 C75.70454581 288.74317918 77.32121949 288.74439331 78.93789317 288.74560978 C94.09386347 288.75648232 109.24981152 288.75432421 124.40578307 288.74822494 C138.26351875 288.74305627 152.12118413 288.7543104 165.9789059 288.77332316 C180.21620386 288.79270658 194.45346857 288.80095665 208.69077981 288.7971999 C216.68065525 288.7952886 224.67047087 288.79776855 232.66033554 288.81191444 C239.46237375 288.82383566 246.2643153 288.82522486 253.06635486 288.81312428 C256.53483771 288.80724071 260.00314382 288.80612153 263.47161484 288.81812668 C267.23643849 288.82857415 271.00078789 288.82050871 274.76559448 288.80781555 C275.85519718 288.81518984 276.94479988 288.82256412 278.06742084 288.83016187 C284.71678302 288.78303564 291.91069592 288.50761442 297.32019031 284.15868837 C302.41426956 278.59951548 302.98774866 271.97861467 302.9296875 264.75 C302.9268576 264.0496312 302.92402771 263.34926239 302.92111206 262.62767029 C302.91002385 260.41696205 302.88494203 258.20667704 302.859375 255.99609375 C302.84933046 254.48633403 302.8402072 252.97656787 302.83203125 251.46679688 C302.81012214 247.78892778 302.77567258 244.11130215 302.734375 240.43359375 C302.03439392 240.42994812 301.33441284 240.42630249 300.61322021 240.42254639 C293.96499591 240.38442877 287.31722486 240.32731172 280.66933823 240.24969101 C277.25284868 240.21044768 273.83660793 240.17814771 270.41992188 240.16259766 C266.47753934 240.14433292 262.53584571 240.09428168 258.59375 240.04296875 C257.38700623 240.04174011 256.18026245 240.04051147 254.93695068 240.03924561 C241.28977425 239.80731918 230.46375484 235.74186502 220.51171875 226.33203125 C209.75714776 214.9542982 207.11314513 202.5856055 207.42578125 187.3984375 C208.00378273 174.67520993 213.91914372 164.74889628 223.046875 156.12109375 C233.75344825 147.09255243 244.50512926 145.14699085 258.10546875 145.01953125 C259.38293472 145.0001651 260.6604007 144.98079895 261.97657776 144.96084595 C265.35158031 144.91136369 268.72647887 144.87002303 272.10162354 144.83270264 C275.55417465 144.79249633 279.00656477 144.74148038 282.45898438 144.69140625 C289.21734394 144.59556136 295.97577433 144.5104564 302.734375 144.43359375 C302.80920075 140.04113065 302.86329183 135.64901703 302.89916992 131.25610352 C302.91414542 129.76547777 302.93453319 128.27489524 302.96069336 126.78442383 C303.58593055 113.58898824 303.58593055 113.58898824 298.45874023 101.86572266 C291.701747 95.5887344 283.23545569 96.14198593 274.61973572 96.16184998 C273.40108954 96.15676314 272.18244335 96.1516763 270.9268685 96.14643532 C267.55653342 96.13433221 264.18640166 96.13107795 260.81605899 96.13157856 C257.17661296 96.12993766 253.53720623 96.11680418 249.89778137 96.1050415 C243.59494615 96.08619454 237.29213025 96.07447138 230.98927116 96.06750298 C221.86991553 96.05732364 212.75061828 96.0352541 203.63129301 96.01011706 C188.82639185 95.96953851 174.02148511 95.9370694 159.21655273 95.91040039 C158.33088191 95.90880309 157.44521108 95.90720579 156.53270174 95.90556008 C155.64591842 95.90396118 154.75913509 95.90236228 153.84547955 95.90071493 C141.27092368 95.8780236 128.69637362 95.85338953 116.12182617 95.82641602 C115.23693297 95.82451987 114.35203977 95.82262372 113.44033163 95.82067012 C98.68889071 95.78889817 83.93746095 95.75314882 69.18603426 95.71537453 C60.0886793 95.69233686 50.99133194 95.67338199 41.89395798 95.65970779 C35.66269479 95.6501823 29.43144441 95.63734411 23.2001931 95.62189894 C19.60455108 95.61313161 16.00892491 95.60603095 12.41327286 95.60325813 C8.51617342 95.60023515 4.61911536 95.58964677 0.72203064 95.57835388 C-0.41522007 95.57874001 -1.55247077 95.57912615 -2.72418362 95.57952398 C-7.67887816 95.55942886 -12.39877635 95.4951815 -17.265625 94.43359375 Z M242.734375 182.49609375 C239.3072168 187.52973235 239.0766884 191.41251927 239.734375 197.43359375 C242.08230158 202.31005665 245.02198354 204.83696989 249.734375 207.43359375 C253.10630516 208.28116374 256.23902264 208.55627278 259.70825195 208.54711914 C260.66887039 208.54704361 261.62948883 208.54696808 262.61921692 208.54689026 C263.6433519 208.54172897 264.66748688 208.53656769 265.72265625 208.53125 C266.78099167 208.52983505 267.83932709 208.5284201 268.92973328 208.52696228 C272.30214289 208.52137534 275.67448554 208.50882519 279.046875 208.49609375 C281.33658758 208.49107706 283.62630121 208.48651445 285.91601562 208.48242188 C291.52218182 208.4722621 297.12820366 208.452684 302.734375 208.43359375 C302.734375 197.87359375 302.734375 187.31359375 302.734375 176.43359375 C296.06283837 176.36449843 289.39255739 176.30483042 282.72094727 176.26879883 C280.45430276 176.25376867 278.18768706 176.23333893 275.92114258 176.20727539 C272.65178287 176.17063787 269.38280973 176.15380915 266.11328125 176.140625 C265.10979141 176.12514114 264.10630157 176.10965729 263.07240295 176.09370422 C255.64190678 176.09195095 247.85546178 176.5051903 242.734375 182.49609375 Z " fill="#000000" transform="translate(113.265625,159.56640625)"/>
<path d="M0 0 C1.04651533 1.16872007 2.07284387 2.35562193 3.08618164 3.55322266 C7.17279187 8.27071863 11.55281251 12.64406306 15.99609375 17.0234375 C17.70520628 18.71992298 19.41418695 20.41654132 21.12304688 22.11328125 C23.79655742 24.7618242 26.471652 27.40873075 29.14916992 30.05322266 C31.74828624 32.62232281 34.34130229 35.19745374 36.93359375 37.7734375 C38.1474601 38.96711441 38.1474601 38.96711441 39.385849 40.18490601 C40.12404373 40.91972198 40.86223846 41.65453796 41.62280273 42.41162109 C42.27675522 43.05811615 42.9307077 43.70461121 43.60447693 44.37069702 C45 46 45 46 45 48 C45.66 48 46.32 48 47 48 C50.61207452 54.09537575 52.12354496 58.89965915 51 66 C49.64752695 70.20146955 47.40121597 72.68066484 43.9375 75.4375 C39.15696992 77.81234398 34.1967698 77.71919582 29 77 C18.74671033 73.15501637 10.98906569 62.08588986 4 54 C3.84385004 58.08299502 3.70226865 62.1664133 3.5625 66.25 C3.52641129 67.24543823 3.52641129 67.24543823 3.48959351 68.26098633 C3.12107713 78.57042361 2.96518885 88.87068374 2.93025398 99.18672943 C2.91338541 103.24613922 2.88078813 107.30546409 2.84894466 111.36478043 C2.82402547 114.76784977 2.81099577 118.17021095 2.82302856 121.57336426 C2.83674595 125.45554865 2.80414453 129.33668382 2.76953125 133.21875 C2.7879306 134.97339569 2.7879306 134.97339569 2.80670166 136.76348877 C2.70815745 143.37322332 1.91431506 147.42035106 -2.43379211 152.50402832 C-6.02258481 155.93188249 -8.99623242 156.8866714 -13.875 157.4375 C-19.80932069 157.18739453 -24.39530407 154.68698803 -28.4375 150.4375 C-31.39973663 145.81641086 -31.13596602 141.51632304 -31.11352539 136.21411133 C-31.11367142 135.31634476 -31.11381744 134.41857819 -31.1139679 133.49360657 C-31.11327064 130.52305697 -31.10548697 127.55256991 -31.09765625 124.58203125 C-31.09579141 122.52365656 -31.09436782 120.46528142 -31.09336853 118.40690613 C-31.08954859 112.98669206 -31.07972273 107.56650476 -31.06866455 102.14630127 C-31.05843921 96.61641807 -31.0538685 91.08653055 -31.04882812 85.55664062 C-31.03810003 74.70441532 -31.02102984 63.85220989 -31 53 C-31.92280762 53.93851807 -31.92280762 53.93851807 -32.86425781 54.89599609 C-35.15627379 57.22216319 -37.45277616 59.54370904 -39.75244141 61.86230469 C-40.74548045 62.86538097 -41.73671447 63.87024767 -42.72607422 64.87695312 C-44.15117426 66.32640161 -45.58271168 67.76921773 -47.015625 69.2109375 C-47.87446289 70.08024902 -48.73330078 70.94956055 -49.61816406 71.84521484 C-54.32777931 76.10588153 -58.03714225 76.44924144 -64.2421875 76.30859375 C-68.56165336 75.82525409 -70.57527738 74.72579964 -74 72 C-77.95825938 67.02680231 -78.6551665 62.95127904 -78.37109375 56.6328125 C-77.03492178 47.15302398 -68.17828074 40.72671917 -61.33032227 34.83911133 C-57.07374848 31.11931132 -53.07666215 27.18826463 -49.10546875 23.16796875 C-48.39143387 22.45014725 -47.67739899 21.73232574 -46.94172668 20.99275208 C-44.68784598 18.72677406 -42.43727273 16.45755618 -40.1875 14.1875 C-37.20469643 11.17811793 -34.2186032 8.17205655 -31.23046875 5.16796875 C-30.54921432 4.47841599 -29.8679599 3.78886322 -29.1660614 3.07841492 C-28.53142471 2.44047501 -27.89678802 1.8025351 -27.24291992 1.14526367 C-26.68746994 0.58457687 -26.13201996 0.02389008 -25.55973816 -0.55378723 C-18.47276181 -7.12493869 -7.2747569 -5.74322913 0 0 Z " fill="#000000" transform="translate(256,33)"/>
</svg>
