<svg width="13" height="13" viewBox="0 0 13 13" fill="none" xmlns="http://www.w3.org/2000/svg">
<g clip-path="url(#clip0_464_64)">
<path d="M12.9931 6.62162C12.9931 6.08901 12.9488 5.70035 12.8531 5.2973H6.62939V7.70121H10.2826C10.209 8.29861 9.81122 9.19829 8.92736 9.80284L8.91498 9.88332L10.8828 11.373L11.0191 11.3863C12.2712 10.2563 12.9931 8.5937 12.9931 6.62162Z" fill="#4285F4"/>
<path d="M6.62952 12.9553C8.41927 12.9553 9.92178 12.3795 11.0193 11.3863L8.92749 9.80282C8.36773 10.1843 7.61645 10.4506 6.62952 10.4506C4.87658 10.4506 3.38879 9.32062 2.85843 7.75879L2.78069 7.76524L0.734523 9.31269L0.707764 9.38538C1.79782 11.5014 4.03689 12.9553 6.62952 12.9553Z" fill="#34A853"/>
<path d="M2.85846 7.75883C2.71852 7.35578 2.63753 6.9239 2.63753 6.47768C2.63753 6.03141 2.71852 5.59959 2.85109 5.19654L2.84739 5.1107L0.775574 3.53839L0.707788 3.5699C0.258522 4.44799 0.000732422 5.43406 0.000732422 6.47768C0.000732422 7.5213 0.258522 8.50732 0.707788 9.38541L2.85846 7.75883Z" fill="#FBBC05"/>
<path d="M6.62952 2.50468C7.87424 2.50468 8.71387 3.03009 9.19264 3.46916L11.0634 1.68419C9.91447 0.640573 8.41927 0 6.62952 0C4.03689 0 1.79782 1.45387 0.707764 3.56989L2.85107 5.19653C3.38879 3.63469 4.87658 2.50468 6.62952 2.50468Z" fill="#EB4335"/>
</g>
<defs>
<clipPath id="clip0_464_64">
<rect width="13" height="13" fill="white"/>
</clipPath>
</defs>
</svg>
