<svg width="22" height="22" viewBox="0 0 22 22" fill="none" xmlns="http://www.w3.org/2000/svg">
<path d="M8.44 10.457C8.34467 10.457 8.264 10.4313 8.198 10.38C8.132 10.3287 8.099 10.259 8.099 10.171C8.099 10.0903 8.132 10.0243 8.198 9.973C8.264 9.91433 8.34467 9.885 8.44 9.885H9.265L9.452 9.929H13.478L13.72 9.885H14.402C14.4973 9.885 14.578 9.91067 14.644 9.962C14.71 10.006 14.743 10.0793 14.743 10.182C14.743 10.2627 14.71 10.3287 14.644 10.38C14.578 10.4313 14.4973 10.457 14.402 10.457H13.599L13.357 10.402H9.441L9.243 10.457H8.44ZM8.44 9.082C8.34467 9.082 8.264 9.06 8.198 9.016C8.132 8.96467 8.099 8.895 8.099 8.807C8.099 8.71167 8.132 8.642 8.198 8.598C8.264 8.54667 8.34467 8.521 8.44 8.521H9.309L9.474 8.576H13.401L13.676 8.521H14.402C14.4973 8.521 14.578 8.54667 14.644 8.598C14.71 8.642 14.743 8.71167 14.743 8.807C14.743 8.90233 14.71 8.972 14.644 9.016C14.578 9.06 14.4973 9.082 14.402 9.082H13.764L13.478 9.049H9.485L9.265 9.082H8.44ZM11.971 7.3C12.3817 7.3 12.7447 7.39533 13.06 7.586C13.3753 7.76933 13.6247 8.026 13.808 8.356C13.9913 8.686 14.083 9.06367 14.083 9.489C14.083 9.91433 13.9913 10.2993 13.808 10.644C13.6247 10.9813 13.3753 11.249 13.06 11.447C12.7447 11.645 12.3817 11.744 11.971 11.744H9.639L9.694 11.634V14.67C9.694 14.758 9.661 14.835 9.595 14.901C9.529 14.967 9.452 15 9.364 15C9.26133 15 9.18067 14.967 9.122 14.901C9.06333 14.835 9.034 14.758 9.034 14.67V7.63C9.034 7.542 9.067 7.465 9.133 7.399C9.199 7.333 9.276 7.3 9.364 7.3H11.971ZM11.971 11.106C12.257 11.106 12.5063 11.0363 12.719 10.897C12.9317 10.7503 13.0967 10.556 13.214 10.314C13.3387 10.0647 13.401 9.78967 13.401 9.489C13.401 9.18833 13.3387 8.92433 13.214 8.697C13.0967 8.46233 12.9317 8.279 12.719 8.147C12.5063 8.015 12.257 7.949 11.971 7.949H9.639L9.694 7.85V11.172L9.628 11.106H11.971Z" fill="black"/>
<path d="M11 0C4.93008 0 0 4.93008 0 11C0 17.0699 4.93008 22 11 22C17.0699 22 22 17.0699 22 11C22 4.93008 17.0699 0 11 0ZM11 0.88C16.5943 0.88 21.12 5.40567 21.12 11C21.12 16.5943 16.5943 21.12 11 21.12C5.40567 21.12 0.88 16.5943 0.88 11C0.88 5.40567 5.40567 0.88 11 0.88ZM11 2.2C6.14511 2.2 2.2 6.14511 2.2 11C2.2 12.9706 2.84933 14.7947 3.94539 16.262C3.97998 16.3083 4.02336 16.3473 4.07304 16.3769C4.12273 16.4065 4.17775 16.426 4.23497 16.4343C4.29218 16.4426 4.35047 16.4395 4.40651 16.4253C4.46255 16.411 4.51523 16.3859 4.56156 16.3513C4.60789 16.3167 4.64695 16.2734 4.67651 16.2237C4.70607 16.174 4.72556 16.119 4.73386 16.0618C4.74216 16.0045 4.73911 15.9462 4.72488 15.8902C4.71065 15.8342 4.68553 15.7815 4.65094 15.7352C3.66409 14.4141 3.08 12.7775 3.08 11C3.08 6.62069 6.62069 3.08 11 3.08C15.3793 3.08 18.92 6.62069 18.92 11C18.92 15.3793 15.3793 18.92 11 18.92C9.7226 18.92 8.51892 18.6188 7.45164 18.083C7.40001 18.057 7.34377 18.0414 7.28612 18.0372C7.22848 18.033 7.17057 18.0401 7.11569 18.0583C7.06082 18.0764 7.01006 18.1052 6.96631 18.143C6.92256 18.1808 6.88668 18.2268 6.86072 18.2784C6.83476 18.3301 6.81922 18.3863 6.815 18.444C6.81078 18.5016 6.81796 18.5595 6.83613 18.6144C6.85429 18.6693 6.88309 18.72 6.92087 18.7637C6.95865 18.8075 7.00468 18.8434 7.05633 18.8693C8.24266 19.4649 9.58388 19.8 11 19.8C15.8549 19.8 19.8 15.8549 19.8 11C19.8 6.14511 15.8549 2.2 11 2.2ZM17.5467 12.4945C17.4998 12.4973 17.4551 12.5152 17.4191 12.5453C17.383 12.5755 17.3576 12.6164 17.3465 12.662C17.0252 13.8888 16.3541 14.9992 15.4129 15.8546C15.3905 15.8737 15.3723 15.8972 15.3591 15.9235C15.346 15.9498 15.3383 15.9785 15.3364 16.0079C15.3346 16.0373 15.3386 16.0667 15.3484 16.0945C15.3581 16.1223 15.3733 16.1478 15.3931 16.1696C15.4129 16.1914 15.4368 16.209 15.4635 16.2214C15.4902 16.2337 15.5191 16.2406 15.5485 16.2416C15.578 16.2426 15.6073 16.2377 15.6347 16.2272C15.6622 16.2167 15.6873 16.2007 15.7085 16.1803C16.7129 15.2675 17.4299 14.0829 17.7727 12.7737C17.7817 12.7417 17.7833 12.708 17.7774 12.6753C17.7715 12.6426 17.7583 12.6116 17.7387 12.5847C17.7191 12.5578 17.6936 12.5357 17.6642 12.5201C17.6349 12.5044 17.6023 12.4957 17.5691 12.4945C17.5616 12.4941 17.5542 12.4941 17.5467 12.4945ZM14.6773 16.4742C14.6353 16.4751 14.5945 16.4879 14.5595 16.5112C14.4683 16.5701 14.3749 16.6267 14.2802 16.6813C14.2296 16.7105 14.1927 16.7586 14.1776 16.815C14.1624 16.8714 14.1703 16.9315 14.1995 16.9821C14.2286 17.0327 14.2767 17.0696 14.3331 17.0848C14.3895 17.0999 14.4496 17.0921 14.5002 17.0629C14.6012 17.0046 14.7003 16.9435 14.7976 16.8807C14.8383 16.8552 14.8696 16.8171 14.8866 16.7721C14.9036 16.7272 14.9054 16.6779 14.8918 16.6318C14.8782 16.5857 14.8498 16.5453 14.8111 16.5169C14.7723 16.4884 14.7253 16.4734 14.6773 16.4742ZM5.51032 16.8523C5.41909 16.8494 5.3292 16.8749 5.25311 16.9253C5.17702 16.9758 5.1185 17.0486 5.08564 17.1338C5.05279 17.2189 5.04723 17.3122 5.06973 17.4007C5.09224 17.4891 5.1417 17.5684 5.21126 17.6275C5.3243 17.7263 5.43955 17.8224 5.55759 17.9154C5.60281 17.9525 5.65499 17.9803 5.71107 17.997C5.76715 18.0137 5.826 18.0191 5.88418 18.0128C5.94235 18.0065 5.99869 17.9887 6.04989 17.9603C6.1011 17.932 6.14613 17.8937 6.18236 17.8478C6.2186 17.8018 6.2453 17.7491 6.26092 17.6927C6.27653 17.6363 6.28074 17.5774 6.2733 17.5193C6.26585 17.4613 6.24691 17.4053 6.21757 17.3547C6.18823 17.304 6.14909 17.2598 6.10243 17.2245C5.99614 17.1407 5.89228 17.0539 5.79048 16.9649C5.71329 16.8955 5.61406 16.8557 5.51032 16.8523Z" fill="black"/>
</svg>
