<svg width="129" height="134" viewBox="0 0 129 134" fill="none" xmlns="http://www.w3.org/2000/svg">
<path d="M129 69.5C129 80.8221 126.02 91.9448 120.359 101.75C114.698 111.555 106.555 119.698 96.75 125.359L88.1425 110.45C95.3307 106.3 101.3 100.331 105.45 93.1425C109.6 85.9543 111.785 77.8002 111.785 69.5H129Z" fill="#595959"/>
<path d="M96.75 125.359C83.8419 132.811 68.7511 135.563 54.0432 133.147C39.3354 130.73 25.9184 123.295 16.0732 112.104L28.9983 100.733C36.2158 108.937 46.0518 114.388 56.8341 116.159C67.6165 117.931 78.6795 115.913 88.1425 110.45L96.75 125.359Z" fill="#A1A1A1"/>
<path d="M16.3293 112.393C5.34538 100.058 -0.487816 83.9789 0.0319441 67.4703C0.551704 50.9616 7.38481 35.2814 19.1229 23.6615L31.2341 35.8958C22.6289 44.4144 17.6195 55.9095 17.2385 68.012C16.8574 80.1145 21.1337 91.902 29.186 100.945L16.3293 112.393Z" fill="#B3B3B3"/>
<path d="M18.8916 23.8916C30.5708 12.2125 46.2853 5.45875 62.7964 5.0225C79.3074 4.58625 95.3567 10.5007 107.636 21.5468L96.1229 34.3459C87.1208 26.2481 75.3552 21.9122 63.2511 22.2321C51.147 22.5519 39.6267 27.503 31.0649 36.0649L18.8916 23.8916Z" fill="#C1C1C1"/>
<path d="M107.522 21.4438C114.322 27.5314 119.752 34.9928 123.455 43.335C127.157 51.6771 129.047 60.71 128.999 69.8367L111.784 69.7469C111.819 63.0561 110.434 56.4341 107.72 50.3184C105.005 44.2028 101.024 38.7328 96.0391 34.27L107.522 21.4438Z" fill="#CACACA"/>
<circle cx="108" cy="19" r="19" fill="#9A9A9A"/>
<path d="M107.882 26.3196C106.661 26.3149 105.609 26.0142 104.729 25.4176C103.853 24.821 103.178 23.9569 102.705 22.8253C102.236 21.6937 102.004 20.3324 102.009 18.7415C102.009 17.1553 102.243 15.8035 102.712 14.6861C103.185 13.5687 103.86 12.7187 104.736 12.1364C105.616 11.5492 106.665 11.2557 107.882 11.2557C109.099 11.2557 110.145 11.5492 111.021 12.1364C111.902 12.7235 112.579 13.5758 113.053 14.6932C113.526 15.8059 113.76 17.1553 113.756 18.7415C113.756 20.3371 113.519 21.7008 113.045 22.8324C112.577 23.964 111.904 24.8281 111.028 25.4247C110.152 26.0213 109.104 26.3196 107.882 26.3196ZM107.882 23.7699C108.715 23.7699 109.381 23.3509 109.878 22.5128C110.375 21.6747 110.621 20.4176 110.616 18.7415C110.616 17.6383 110.503 16.7197 110.276 15.9858C110.053 15.2519 109.736 14.7003 109.324 14.331C108.917 13.9616 108.436 13.777 107.882 13.777C107.054 13.777 106.391 14.1913 105.893 15.0199C105.396 15.8485 105.145 17.089 105.141 18.7415C105.141 19.8589 105.252 20.7917 105.474 21.5398C105.702 22.2831 106.021 22.8419 106.433 23.2159C106.845 23.5852 107.328 23.7699 107.882 23.7699Z" fill="white"/>
</svg>
