<?xml version="1.0" encoding="UTF-8"?>
<svg version="1.1" xmlns="http://www.w3.org/2000/svg" width="512" height="512">
<path d="M0 0 C2.01772649 1.75352852 3.8879507 3.48112548 5.75689697 5.37594604 C6.29162306 5.90599216 6.82634914 6.43603827 7.37727904 6.98214638 C9.15224016 8.74522151 10.91637819 10.5187278 12.68066406 12.29248047 C13.95698127 13.56472919 15.23393506 14.83633955 16.51147461 16.10736084 C19.96859884 19.55084011 23.41620405 23.00370342 26.86174488 26.45876837 C30.4726495 30.07728248 34.09088416 33.6884552 37.70794678 37.30081177 C43.77912968 43.3665416 49.84397055 49.43855864 55.90527344 55.51416016 C62.90985816 62.53507782 69.92519472 69.54511286 76.94619966 76.54960716 C82.97904842 82.56883713 89.00602512 88.59389982 95.02814269 94.6238662 C98.62276666 98.22316355 102.21937811 101.82041196 105.82129669 105.41241074 C109.206527 108.78896777 112.58432019 112.1727934 115.95654297 115.56233978 C117.19434388 116.80410324 118.43469704 118.04332865 119.67778778 119.2797966 C121.37591356 120.96970815 123.0645035 122.66861759 124.7510376 124.37008667 C125.24334751 124.85570442 125.73565743 125.34132217 126.24288583 125.84165561 C131.00392696 130.68464827 133.42829189 135.17863797 133.375 142 C133.38273438 142.99 133.39046875 143.98 133.3984375 145 C132.56452067 151.27890322 129.04619753 155.39401375 124.67510986 159.71257019 C124.13845664 160.25460895 123.60180341 160.79664772 123.04888797 161.3551119 C121.25742406 163.16082839 119.45548342 164.95569877 117.65332031 166.75073242 C116.36314404 168.04661363 115.07359892 169.34312348 113.78463745 170.64021301 C110.28742958 174.15535305 106.78073357 177.6608798 103.27169895 181.16420913 C100.34143474 184.09138177 97.41577424 187.02313407 94.49007678 189.95487005 C87.58745274 196.87153775 80.67705846 203.78037341 73.76171875 210.68432617 C66.63077243 217.80378969 59.51270188 224.93594081 52.40090871 232.07453269 C46.29084428 238.20675638 40.17304706 244.33118822 34.04895854 250.44940645 C30.39298142 254.10201358 26.73995891 257.75745469 23.09427643 261.42033958 C19.66571019 264.86437639 16.22756866 268.29855916 12.78186417 271.7254467 C11.52029202 272.98333343 10.26210554 274.24462646 9.00761795 275.5095787 C7.2917988 277.23861182 5.56405551 278.95479856 3.83282471 280.66838074 C3.34165578 281.16915467 2.85048686 281.6699286 2.34443402 282.1858775 C-1.68449339 286.13101291 -5.83380101 288.48327633 -11.44140625 289.3984375 C-17.8308277 289.32783616 -21.75193153 287.93438449 -26.6875 283.6875 C-30.69525578 279.02983787 -32.3801183 275.04504311 -32.34057617 268.90283203 C-32.34034958 267.72206085 -32.34012299 266.54128967 -32.33988953 265.32473755 C-32.32440567 264.06515228 -32.30892181 262.80556702 -32.29296875 261.5078125 C-32.28872391 260.20673553 -32.28447906 258.90565857 -32.28010559 257.56515503 C-32.26870479 254.12254237 -32.23927974 250.68031533 -32.20599365 247.237854 C-32.17518917 243.71851822 -32.1615782 240.19911953 -32.14648438 236.6796875 C-32.11440462 229.78630091 -32.06326684 222.89316902 -32 216 C-33.04398705 216.00276538 -34.08797409 216.00553076 -35.16359711 216.00837994 C-60.56917688 216.07498638 -85.97474533 216.124281 -111.38039398 216.15543652 C-123.66638798 216.17090365 -135.95232428 216.19199032 -148.23828125 216.22631836 C-158.94704429 216.25622531 -169.65576555 216.27557612 -180.36456919 216.28226548 C-186.03449584 216.28617552 -191.70430295 216.29536164 -197.37419128 216.31719017 C-202.71258668 216.33757567 -208.05081346 216.34382957 -213.38924408 216.33932304 C-215.34676276 216.34014731 -217.30428717 216.34610059 -219.26177216 216.35761642 C-221.93916547 216.3725928 -224.61592631 216.36893488 -227.29333496 216.36076355 C-228.06378568 216.36950207 -228.8342364 216.3782406 -229.62803411 216.38724393 C-235.6496575 216.33773808 -241.30088495 215.25353059 -246.05859375 211.28125 C-246.51363281 210.6934375 -246.96867188 210.105625 -247.4375 209.5 C-247.91058594 208.9121875 -248.38367188 208.324375 -248.87109375 207.71875 C-255.79718643 197.17383381 -251.6178693 182.61031298 -252 170 C-278.73 196.73 -305.46 223.46 -333 251 C-328.33474792 256.49361267 -328.33474792 256.49361267 -323.43118286 261.68907166 C-322.79187332 262.32975586 -322.15256378 262.97044006 -321.49388123 263.63053894 C-320.81414749 264.3066774 -320.13441376 264.98281586 -319.43408203 265.67944336 C-318.70168808 266.41198334 -317.96929413 267.14452332 -317.21470642 267.89926147 C-314.81477343 270.29850275 -312.41132745 272.69419129 -310.0078125 275.08984375 C-308.3346507 276.76113873 -306.66171085 278.43265592 -304.98898315 280.10438538 C-300.60182061 284.48774351 -296.21166243 288.86808925 -291.82086182 293.24780273 C-287.3344815 297.72392418 -282.85095708 302.20290426 -278.3671875 306.68164062 C-269.58090901 315.45721843 -260.7914614 324.22961471 -252 333 C-251.98541748 332.0620459 -251.97083496 331.1240918 -251.95581055 330.15771484 C-251.89453283 326.65730621 -251.82034068 323.15765551 -251.73754883 319.65771484 C-251.70442074 318.14675096 -251.67635145 316.63566693 -251.65356445 315.12451172 C-251.61979319 312.94446918 -251.56747104 310.76551561 -251.51171875 308.5859375 C-251.48553467 307.2767334 -251.45935059 305.9675293 -251.43237305 304.61865234 C-250.78175552 299.17345017 -249.06470999 296.01841825 -245.125 292.25 C-240.21787893 288.71687283 -236.59625229 287.75048568 -230.56816101 287.73257446 C-228.61890213 287.71977951 -228.61890213 287.71977951 -226.63026428 287.70672607 C-225.19711292 287.70742505 -223.76396164 287.70834808 -222.33081055 287.70947266 C-220.81597564 287.70348585 -219.30114378 287.69667995 -217.78631592 287.68911743 C-213.67668543 287.67146473 -209.56713825 287.66676234 -205.45747352 287.66548586 C-202.88794386 287.66406318 -200.31843531 287.65979134 -197.7489109 287.65449142 C-188.77896406 287.63599289 -179.80907662 287.62782051 -170.83911133 287.62939453 C-162.48720676 287.63059558 -154.13556077 287.60950009 -145.78372163 287.5779072 C-138.60562354 287.55172513 -131.42760979 287.54102806 -124.24946433 287.54230535 C-119.96567779 287.54281446 -115.68212103 287.53715984 -111.39838219 287.51594925 C-107.36731686 287.49653443 -103.33669975 287.49646428 -99.30561829 287.51098251 C-97.83025264 287.51306778 -96.3548587 287.50838653 -94.8795414 287.4962616 C-78.81372681 287.3728278 -78.81372681 287.3728278 -72.4574995 293.48272133 C-67.98065865 298.55255661 -67.69904439 302.7919308 -67.79296875 309.28125 C-68.21444929 314.81616431 -70.54629697 317.76485399 -74.5625 321.3125 C-78.33027604 324.39964553 -80.42188304 325.12483936 -85.32766724 325.12025452 C-87.02303619 325.12231651 -87.02303619 325.12231651 -88.75265503 325.12442017 C-89.99846344 325.12082489 -91.24427185 325.11722961 -92.52783203 325.11352539 C-93.83510254 325.11367142 -95.14237305 325.11381744 -96.48925781 325.1139679 C-100.07994761 325.1142555 -103.6706042 325.10836466 -107.26128626 325.10139394 C-111.01158131 325.09515433 -114.76187707 325.09455612 -118.51217651 325.09336853 C-125.61656032 325.09025701 -132.72092878 325.08204603 -139.82530582 325.07201904 C-147.91225789 325.06085235 -155.99921067 325.05534605 -164.08616853 325.05032361 C-180.72412134 325.03986327 -197.36205871 325.02226728 -214 325 C-213.99111755 325.7213916 -213.98223511 326.4427832 -213.9730835 327.18603516 C-213.8926626 334.01174187 -213.83189656 340.83737702 -213.79275131 347.66343689 C-213.77194892 351.17215319 -213.74376837 354.68047533 -213.69824219 358.18896484 C-213.64613643 362.23017993 -213.62699423 366.27098629 -213.609375 370.3125 C-213.58872986 371.5617627 -213.56808472 372.81102539 -213.54681396 374.09814453 C-213.54458105 382.82377503 -214.5899064 388.26513558 -220.625 394.875 C-225.61571405 398.01730144 -230.43983784 399.46488068 -236.36328125 398.69140625 C-247.40167061 395.62200956 -255.47308537 384.68107229 -263.33520508 376.82592773 C-264.56284018 375.60292936 -265.79066946 374.38012587 -267.01867676 373.15750122 C-270.33279703 369.85641421 -273.64365382 366.55207383 -276.95349336 363.24669528 C-279.02353432 361.17959636 -281.09415622 359.11308108 -283.16495323 357.04673958 C-289.65080459 350.57453166 -296.13467373 344.10034775 -302.61564332 337.62325138 C-310.08597504 330.1574098 -317.56281885 322.6981714 -325.04534417 315.24455112 C-330.84018704 309.47131651 -336.62926033 303.69233799 -342.4139778 297.90895802 C-345.86500409 294.45897923 -349.31841263 291.01146869 -352.77784157 287.56991386 C-356.02745585 284.33676801 -359.26984731 281.09655019 -362.50684357 277.85077286 C-363.69464374 276.66220199 -364.88500695 275.47618606 -366.07812309 274.29295158 C-367.70832033 272.67546665 -369.32896098 271.04896019 -370.94758606 269.41990662 C-371.85622312 268.51273612 -372.76486017 267.60556562 -373.70103168 266.67090511 C-377.66667676 262.06368124 -379.42240961 258.06842997 -379.375 252 C-379.38273437 251.01 -379.39046875 250.02 -379.3984375 249 C-378.56452067 242.72109678 -375.04619753 238.60598625 -370.67510986 234.28742981 C-370.13845664 233.74539105 -369.60180341 233.20335228 -369.04888797 232.6448881 C-367.25742406 230.83917161 -365.45548342 229.04430123 -363.65332031 227.24926758 C-362.36314404 225.95338637 -361.07359892 224.65687652 -359.78463745 223.35978699 C-356.28742958 219.84464695 -352.78073357 216.3391202 -349.27169895 212.83579087 C-346.34143474 209.90861823 -343.41577424 206.97686593 -340.49007678 204.04512995 C-333.58745274 197.12846225 -326.67705846 190.21962659 -319.76171875 183.31567383 C-312.63077243 176.19621031 -305.51270188 169.06405919 -298.40090871 161.92546731 C-292.29084428 155.79324362 -286.17304706 149.66881178 -280.04895854 143.55059355 C-276.39298142 139.89798642 -272.73995891 136.24254531 -269.09427643 132.57966042 C-265.66571019 129.13562361 -262.22756866 125.70144084 -258.78186417 122.2745533 C-257.52029202 121.01666657 -256.26210554 119.75537354 -255.00761795 118.4904213 C-253.2917988 116.76138818 -251.56405551 115.04520144 -249.83282471 113.33161926 C-249.34165578 112.83084533 -248.85048686 112.3300714 -248.34443402 111.8141225 C-244.31550661 107.86898709 -240.16619899 105.51672367 -234.55859375 104.6015625 C-228.1691723 104.67216384 -224.24806847 106.06561551 -219.3125 110.3125 C-215.30474422 114.97016213 -213.6198817 118.95495689 -213.65942383 125.09716797 C-213.65965042 126.27793915 -213.65987701 127.45871033 -213.66011047 128.67526245 C-213.67559433 129.93484772 -213.69107819 131.19443298 -213.70703125 132.4921875 C-213.71127609 133.79326447 -213.71552094 135.09434143 -213.71989441 136.43484497 C-213.73129521 139.87745763 -213.76072026 143.31968467 -213.79400635 146.762146 C-213.82481083 150.28148178 -213.8384218 153.80088047 -213.85351562 157.3203125 C-213.88559538 164.21369909 -213.93673316 171.10683098 -214 178 C-212.95601295 177.99723462 -211.91202591 177.99446924 -210.83640289 177.99162006 C-185.43082312 177.92501362 -160.02525467 177.875719 -134.61960602 177.84456348 C-122.33361202 177.82909635 -110.04767572 177.80800968 -97.76171875 177.77368164 C-87.05295571 177.74377469 -76.34423445 177.72442388 -65.63543081 177.71773452 C-59.96550416 177.71382448 -54.29569705 177.70463836 -48.62580872 177.68280983 C-43.28741332 177.66242433 -37.94918654 177.65617043 -32.61075592 177.66067696 C-30.65323724 177.65985269 -28.69571283 177.65389941 -26.73822784 177.64238358 C-24.06083453 177.6274072 -21.38407369 177.63106512 -18.70666504 177.63923645 C-17.93621432 177.63049793 -17.1657636 177.6217594 -16.37196589 177.61275607 C-10.3503425 177.66226192 -4.69911505 178.74646941 0.05859375 182.71875 C0.51363281 183.3065625 0.96867187 183.894375 1.4375 184.5 C1.91058594 185.0878125 2.38367188 185.675625 2.87109375 186.28125 C9.79718643 196.82616619 5.6178693 211.38968702 6 224 C32.73 197.27 59.46 170.54 87 143 C82.33474792 137.50638733 82.33474792 137.50638733 77.43118286 132.31092834 C76.79187332 131.67024414 76.15256378 131.02955994 75.49388123 130.36946106 C74.81414749 129.6933226 74.13441376 129.01718414 73.43408203 128.32055664 C72.70168808 127.58801666 71.96929413 126.85547668 71.21470642 126.10073853 C68.81477343 123.70149725 66.41132745 121.30580871 64.0078125 118.91015625 C62.3346507 117.23886127 60.66171085 115.56734408 58.98898315 113.89561462 C54.60182061 109.51225649 50.21166243 105.13191075 45.82086182 100.75219727 C41.3344815 96.27607582 36.85095708 91.79709574 32.3671875 87.31835938 C23.58090901 78.54278157 14.7914614 69.77038529 6 61 C5.98541748 61.9379541 5.97083496 62.8759082 5.95581055 63.84228516 C5.89453283 67.34269379 5.82034068 70.84234449 5.73754883 74.34228516 C5.70442074 75.85324904 5.67635145 77.36433307 5.65356445 78.87548828 C5.61979319 81.05553082 5.56747104 83.23448439 5.51171875 85.4140625 C5.48553467 86.7232666 5.45935059 88.0324707 5.43237305 89.38134766 C4.78175552 94.82654983 3.06470999 97.98158175 -0.875 101.75 C-5.78212107 105.28312717 -9.40374771 106.24951432 -15.43183899 106.26742554 C-16.73134491 106.27595551 -18.03085083 106.28448547 -19.36973572 106.29327393 C-20.80288708 106.29257495 -22.23603836 106.29165192 -23.66918945 106.29052734 C-25.18402436 106.29651415 -26.69885622 106.30332005 -28.21368408 106.31088257 C-32.32331457 106.32853527 -36.43286175 106.33323766 -40.54252648 106.33451414 C-43.11205614 106.33593682 -45.68156469 106.34020866 -48.2510891 106.34550858 C-57.22103594 106.36400711 -66.19092338 106.37217949 -75.16088867 106.37060547 C-83.51279324 106.36940442 -91.86443923 106.39049991 -100.21627837 106.4220928 C-107.39437646 106.44827487 -114.57239021 106.45897194 -121.75053567 106.45769465 C-126.03432221 106.45718554 -130.31787897 106.46284016 -134.60161781 106.48405075 C-138.63268314 106.50346557 -142.66330025 106.50353572 -146.69438171 106.48901749 C-148.16974736 106.48693222 -149.6451413 106.49161347 -151.1204586 106.5037384 C-167.18627319 106.6271722 -167.18627319 106.6271722 -173.5425005 100.51727867 C-178.01934135 95.44744339 -178.30095561 91.2080692 -178.20703125 84.71875 C-177.78555071 79.18383569 -175.45370303 76.23514601 -171.4375 72.6875 C-167.66972396 69.60035447 -165.57811696 68.87516064 -160.67233276 68.87974548 C-159.54208679 68.87837082 -158.41184082 68.87699615 -157.24734497 68.87557983 C-155.37863235 68.88097275 -155.37863235 68.88097275 -153.47216797 68.88647461 C-152.16489746 68.88632858 -150.85762695 68.88618256 -149.51074219 68.8860321 C-145.92005239 68.8857445 -142.3293958 68.89163534 -138.73871374 68.89860606 C-134.98841869 68.90484567 -131.23812293 68.90544388 -127.48782349 68.90663147 C-120.38343968 68.90974299 -113.27907122 68.91795397 -106.17469418 68.92798096 C-98.08774211 68.93914765 -90.00078933 68.94465395 -81.91383147 68.94967639 C-65.27587866 68.96013673 -48.63794129 68.97773272 -32 69 C-32.00999275 67.91458168 -32.00999275 67.91458168 -32.02018738 66.80723572 C-32.08045868 59.96646004 -32.12605556 53.12572439 -32.15543652 46.28475094 C-32.17104978 42.76825002 -32.19220765 39.2519697 -32.22631836 35.7355957 C-32.26534335 31.68699095 -32.27974501 27.63861561 -32.29296875 23.58984375 C-32.30845261 22.33541977 -32.32393646 21.08099579 -32.33988953 19.78855896 C-32.34128514 12.51651602 -32.18777786 6.89003586 -27.421875 1.07421875 C-18.21920549 -6.55883657 -9.7571215 -6.35646565 0 0 Z " fill="#000000" transform="translate(379,59)"/>
</svg>
